<svg width="900" height="900" xmlns="http://www.w3.org/2000/svg">
 <metadata id="metadata8">image/svg+xml</metadata>

 <style type="text/css"/>
 <g>
  <title>background</title>
  <rect fill="none" id="canvas_background" height="902" width="902" y="-1" x="-1"/>
 </g>
 <g>
  <title>Layer 1</title>

  <path stroke="black" stroke-width="20" fill="#ffff00" id="path3338" d="m281.76692,867.35265c-7.39249,-2.00569 -12.84507,-5.26262 -18.86722,-11.26987c-8.41917,-8.39832 -12.07209,-17.18738 -12.08018,-29.06544c-0.0103,-15.11925 7.61578,-28.25825 20.84631,-35.91612c13.33092,-7.71601 20.37417,-13.37757 22.96552,-18.46044c0.70057,-1.37413 8.6168,-23.39063 17.59162,-48.9255c15.30367,-43.54157 16.31786,-46.69625 16.31786,-50.75781c0,-5.56038 -1.83452,-10.55857 -5.22566,-14.23757c-1.4063,-1.52562 -5.93838,-5.06412 -10.0713,-7.86325c-4.13291,-2.79912 -10.0564,-7.07481 -13.1633,-9.50156c-3.1069,-2.42669 -5.98738,-4.62138 -6.40106,-4.87706c-0.81086,-0.50113 -44.4223,36.67743 -46.19222,39.37869c-0.81061,1.23712 -0.89298,2.23737 -0.44485,5.40193c0.94127,6.64688 0.53193,14.67425 -0.97886,19.19619c-4.00424,11.98513 -14.17468,21.92531 -25.96025,25.37262c-5.98143,1.74957 -16.74399,1.46826 -23.17401,-0.60568c-11.39497,-3.67544 -19.3291,-11.72394 -23.90063,-24.24532c-1.48087,-4.05606 -1.67377,-5.48406 -1.67452,-12.39662c-0.00062,-6.56638 0.23213,-8.48706 1.45974,-12.04138c2.79136,-8.08193 9.50574,-16.22431 17.01537,-20.63412c6.76966,-3.97531 9.48206,-4.5375 20.89905,-4.33194c8.75294,0.15756 10.20951,0.0406 11.68002,-0.9375c0.92401,-0.61469 10.18669,-11.06731 20.58374,-23.22812c18.19814,-21.28525 18.87026,-22.16363 18.00748,-23.5325c-0.49293,-0.78206 -3.02701,-4.19169 -5.6313,-7.57694c-2.60428,-3.38525 -6.23718,-8.405 -8.07312,-11.155c-5.75085,-8.61406 -9.57796,-11.92688 -15.90261,-13.7655c-6.9307,-2.01481 -7.35212,-1.90162 -56.91421,15.28556c-25.09375,8.702 -46.86618,16.40213 -48.38318,17.11138c-5.9915,2.80119 -13.71777,11.87662 -19.5003,22.90531c-3.11801,5.94681 -10.24871,12.91163 -16.49152,16.10788c-7.34607,3.76106 -11.73855,4.77012 -20.625,4.738c-6.04566,-0.0219 -8.27708,-0.29369 -11.50734,-1.40182c-5.88617,-2.01925 -9.87418,-4.18006 -14.35612,-7.77856c-8.192,-6.57725 -12.61821,-13.97525 -14.79277,-24.72475c-3.4871,-17.23781 5.5034,-35.78812 21.28123,-43.91c7.49046,-3.85587 12.15727,-4.99763 20.30611,-4.96806c5.38485,0.0194 7.75178,0.36287 13.13139,1.90475c11.03239,3.162 18.9398,3.93362 25.62251,2.50044c4.87587,-1.04569 90.78103,-42.36512 94.9886,-45.68847c7.25606,-5.73121 8.88389,-13.17572 6.055,-27.69116c-0.87092,-4.46875 -1.93069,-11.07813 -2.35506,-14.6875c-0.42437,-3.60938 -0.99969,-6.82392 -1.27849,-7.14342c-0.2788,-0.31952 -13.63651,-1.49842 -29.68379,-2.6198c-33.38148,-2.33267 -30.84803,-2.57949 -35.49377,3.45799c-12.03058,15.63464 -31.5567,20.02222 -49.00358,11.01126c-6.55032,-3.38311 -10.28559,-6.7847 -14.44228,-13.15209c-6.9279,-10.61248 -7.94336,-21.69193 -3.10826,-33.9134c3.72562,-9.4171 9.74205,-16.2526 17.76162,-20.17968c6.51836,-3.19195 11.28697,-4.36525 17.8125,-4.38269c6.66065,-0.0178 10.97507,0.88231 16.61559,3.46647c4.51945,2.07056 7.14172,4.33162 13.19309,11.37586c5.43223,6.3235 2.93235,6.09634 36.75382,3.33971c16.15625,-1.31682 29.41677,-2.42032 29.46782,-2.45222c0.0511,-0.0319 0.29061,-2.09705 0.53236,-4.58924c0.41833,-4.31269 2.31891,-16.25242 4.29626,-26.98984c2.2576,-12.25928 -2.57792,-20.67005 -15.41976,-26.82068c-3.16342,-1.51512 -22.90793,-10.97664 -43.87668,-21.02559c-20.96875,-10.04894 -39.25,-18.69755 -40.625,-19.21912c-4.28428,-1.62513 -15.59456,-1.23658 -23.125,0.79443c-12.00127,3.23682 -14.04938,3.55851 -20.3125,3.19036c-7.1167,-0.41832 -11.18238,-1.55087 -17.71623,-4.9351c-14.37408,-7.44512 -23.35373,-23.53843 -22.02485,-39.47288c0.5177,-6.20773 3.37895,-14.98046 6.34172,-19.44407c2.48558,-3.74468 9.63757,-10.73404 13.44007,-13.13445c1.38606,-0.87499 4.68612,-2.44264 7.33345,-3.48366c4.14426,-1.62967 5.89931,-1.94109 12.62584,-2.24039c9.49375,-0.42243 13.35874,0.38875 21.68699,4.55163c7.42262,3.7102 14.07588,10.38664 18.31301,18.37676c5.33902,10.06803 11.71941,17.37498 17.93507,20.53963c1.44242,0.7344 23.37992,8.54026 48.75,17.34636c42.46814,14.74095 46.4745,16.01597 50.50243,16.07241c9.33862,0.13086 14.44114,-3.26852 22.5,-14.98986c3.09375,-4.49976 7.25374,-10.25493 9.24442,-12.78928c1.99069,-2.53435 3.62658,-4.8352 3.63532,-5.11301c0.009,-0.27781 -8.32797,-10.04583 -18.52601,-21.70672c-20.52697,-23.47144 -19.82921,-22.89541 -26.42511,-21.815c-11.88154,1.94619 -23.81529,-1.56331 -32.29768,-9.49817c-5.18905,-4.8541 -8.24048,-9.52687 -10.5365,-16.1349c-3.31213,-9.53246 -2.37976,-20.55932 2.5654,-30.34011c2.27291,-4.49546 4.28231,-6.92637 8.23353,-9.96067c4.68609,-3.59863 9.46424,-6.16717 14.73163,-7.91914c5.83408,-1.94046 16.96179,-2.10295 22.1875,-0.32398c12.6027,4.29026 21.68799,13.06732 25.63604,24.76629c1.25442,3.71713 1.33398,4.79041 0.93589,12.62473c-0.23931,4.70922 -0.24552,9.42537 -0.0138,10.48033c0.3423,1.55847 4.52207,5.38501 22.29316,20.40919l21.87187,18.49109l2.29467,-1.83553c6.71881,-5.3744 13.65474,-10.49217 19.79468,-14.60577c7.90746,-5.2978 11.41573,-8.6462 13.4968,-12.88172c1.22675,-2.49676 1.4741,-3.98227 1.48733,-8.93232l0.0159,-5.9375l-15.8363,-45c-8.70996,-24.75 -16.52771,-46.46098 -17.37277,-48.24662c-2.34267,-4.95012 -9.08572,-10.81257 -19.62935,-17.06588c-5.19131,-3.07891 -10.29961,-6.64383 -12.14987,-8.47899c-15.41762,-15.29191 -16.788,-38.94435 -3.24202,-55.95599c3.58635,-4.50389 7.0913,-7.34305 12.91781,-10.46398c6.82617,-3.6564 11.37936,-4.70348 20.3125,-4.67118c8.00275,0.0289 11.70839,0.89527 18.91703,4.42265c4.47148,2.18802 11.56197,8.27115 14.85525,12.74476c5.11816,6.95253 8.31512,18.37414 7.57789,27.07316c-0.20473,2.41564 -1.21328,7.3452 -2.24122,10.95457c-3.39808,11.93149 -4.00591,19.70936 -2.03484,26.03807c0.62515,2.00719 10.67983,23.33082 22.34375,47.38586c23.33561,48.12607 23.07245,47.68384 30.45323,51.17551c5.14566,2.43429 9.90073,2.72204 17.96281,1.087c3.62114,-0.73438 10.77209,-1.8949 15.891,-2.57893c5.11891,-0.68402 9.42965,-1.36622 9.57943,-1.51601c0.14978,-0.14978 1.13416,-12.50128 2.1875,-27.44778l1.91517,-27.17545l-1.61696,-2.11994c-0.88933,-1.16597 -3.21215,-3.2186 -5.16183,-4.56139c-6.4097,-4.41453 -11.92228,-13.27275 -13.82826,-22.22073c-1.88572,-8.85294 0.15807,-20.15282 5.00033,-27.6461c2.7424,-4.24382 9.82176,-10.93991 14.13722,-13.37183c1.89063,-1.06545 5.51198,-2.56282 8.04744,-3.3275c3.96575,-1.19605 5.53785,-1.34195 11.25,-1.04407c10.67318,0.55657 18.98577,4.11025 27.02534,11.55347c2.93928,2.72125 4.33085,4.69118 6.46368,9.15008c3.30818,6.91607 4.31407,11.0098 4.31407,17.55724c0,6.30374 -1.01052,10.65018 -3.82527,16.45326c-1.75722,3.6228 -3.13898,5.38368 -6.62095,8.4375c-6.40073,5.61371 -9.16283,8.48778 -9.82113,10.21925c-0.49435,1.30024 1.61733,32.57734 3.49991,51.83874l0.37374,3.82375l4.80283,0.42817c6.79233,0.60554 16.82162,2.07508 24.49034,3.58846c7.97394,1.5736 12.84592,1.28336 17.80031,-1.06044c7.39144,-3.49671 7.11757,-3.0356 30.799,-51.85369c24.40225,-50.30393 24.10313,-49.51959 22.8035,-59.79566c-0.4055,-3.20613 -1.66043,-8.92309 -2.78881,-12.70434c-1.83212,-6.13987 -2.04931,-7.67696 -2.03106,-14.375c0.0187,-6.80198 0.2085,-8.04414 2.04125,-13.34664c2.44281,-7.06762 5.19394,-11.36145 10.32381,-16.11303c5.39644,-4.99849 10.06431,-7.8577 16.14437,-9.88893c4.42488,-1.47826 6.31513,-1.75382 12.40763,-1.80877c7.89906,-0.0712 11.948,0.6882 17.89825,3.35708c10.91169,4.89425 18.63656,13.25788 22.49625,24.35629c3.191,9.17572 3.07362,18.7302 -0.34506,28.09771c-3.30069,9.04405 -9.59769,16.45475 -18.30594,21.54353c-13.42763,7.84662 -19.54619,12.73532 -22.64369,18.0921c-0.82231,1.42212 -8.87625,23.53879 -17.89762,49.14816c-15.46919,43.91314 -16.40232,46.81143 -16.39957,50.9375c0.006,5.28926 1.73382,10.21181 4.88225,13.89006c1.19619,1.39749 5.20175,4.588 8.90125,7.09003c3.6995,2.50203 10.19094,7.18995 14.42544,10.4176l7.69913,5.86845l3.53075,-3.00807c25.45218,-21.68443 36.8075,-31.81743 37.52281,-33.48379c0.64562,-1.50405 0.67987,-2.7696 0.15625,-5.77635c-3.402,-19.53579 8.58312,-38.40727 27.67031,-43.56886c3.62919,-0.98141 5.82588,-1.15256 11.65919,-0.90843c11.299,0.47288 18.9005,3.64138 25.40837,10.59086c11.54144,12.32471 14.64432,30.13998 7.67769,44.08142c-4.02269,8.05014 -12.26787,15.68244 -20.54469,19.01752c-3.15468,1.27116 -4.53306,1.40259 -14.79181,1.41046c-9.11312,0.007 -11.53312,0.19053 -12.44519,0.94389c-2.03993,1.68491 -35.39562,40.66537 -35.19118,41.12544c0.10962,0.24668 2.44931,3.3501 5.19931,6.89647c2.75,3.54638 7.25,9.72122 10,13.72188c7.44212,10.82671 12.61819,14.14528 21.87106,14.0224c4.03538,-0.0536 8.00738,-1.31584 50.62894,-16.08906c25.4375,-8.81699 47.51562,-16.75119 49.0625,-17.63154c1.54687,-0.88034 3.94744,-2.51436 5.33456,-3.63114c2.95356,-2.37793 9.60263,-11.48715 12.30225,-16.85424c2.48738,-4.94502 7.79719,-11.48544 11.54244,-14.21749c4.49787,-3.28106 11.1955,-6.43285 16.29406,-7.66768c6.02738,-1.4598 17.51063,-1.02741 22.82375,0.8594c6.71813,2.38573 11.21763,5.26088 16.766,10.71327c4.27731,4.20333 5.8695,6.29118 7.626,10c3.15607,6.66412 4.36,11.80542 4.39082,18.75c0.0832,18.76254 -12.0705,34.84719 -30.51738,40.38774c-2.69281,0.8088 -5.86438,1.1305 -11.25,1.14116c-6.613,0.0131 -8.31306,-0.22156 -14.375,-1.98405c-11.13513,-3.23752 -20.03787,-3.87405 -26.5625,-1.89918c-4.30837,1.30406 -89.748,42.55174 -92.6045,44.70666c-4.76875,3.59757 -6.78244,7.07018 -8.00306,13.80146c-0.57075,3.14742 -0.41282,4.90623 1.21725,13.55613c1.03018,5.46671 2.34393,13.96183 2.9195,18.87804c0.95356,8.14545 1.16225,8.96155 2.35237,9.1976c0.71825,0.14248 12.91481,1.04028 27.10338,1.99513c25.34568,1.70569 25.8355,1.71565 27.96575,0.56843c1.1925,-0.64222 3.04812,-2.53886 4.1235,-4.21477c4.14168,-6.45426 12.84368,-12.3582 21.48831,-14.57889c4.56019,-1.17145 12.34125,-1.3112 17.76906,-0.31912c7.69938,1.40725 17.09113,7.27333 21.97356,13.72463c6.40344,8.46109 8.40407,14.70026 7.91594,24.68666c-0.70069,14.33381 -8.72637,27.08318 -20.64644,32.7981c-7.35875,3.52806 -9.77768,4.06218 -18.26212,4.03245c-7.82988,-0.0274 -10.11013,-0.52913 -16.908,-3.72c-2.99494,-1.40582 -5.22231,-3.43684 -12.72306,-11.60151c-1.78407,-1.94195 -4.07407,-3.87475 -5.08888,-4.2951c-1.51094,-0.62586 -6.45769,-0.40769 -27.31256,1.20453c-14.00713,1.08284 -26.33863,2.10627 -27.40331,2.27427l-1.93582,0.30546l-0.768,6.39583c-0.42243,3.51772 -1.60362,10.75522 -2.62487,16.08334c-1.58125,8.24985 -1.76575,10.21273 -1.24325,13.2267c1.55575,8.97392 5.52931,13.60823 15.95075,18.60309c68.5355,32.84815 84.23219,40.21659 86.88269,40.78502c5.26681,1.12957 14.11537,0.27844 23.7885,-2.28812c14.27256,-3.78694 23.74887,-3.14638 34.26675,2.31625c6.13656,3.18719 9.53787,5.95556 13.6465,11.10706c9.19493,11.529 11.419,26.30031 6.13975,40.77806c-4.17713,11.45544 -13.7235,20.28188 -26.85469,24.82938c-3.28713,1.13837 -5.49394,1.41644 -11.5625,1.45687c-8.93588,0.0594 -13.18838,-0.91081 -20.53956,-4.68706c-6.17475,-3.17181 -13.36813,-10.10437 -16.64794,-16.04425c-6.72594,-12.18081 -13.05875,-19.71562 -19.11419,-22.74194c-1.69031,-0.84475 -23.60456,-8.678 -48.69831,-17.40725l-45.625,-15.87131l-5.3125,0c-9.08363,0 -14.2705,3.05119 -20.18706,11.875c-4.6635,6.95494 -12.13707,16.96588 -16.16063,21.64738c-1.665,1.93731 -3.02731,3.71487 -3.02731,3.95018c0,0.23532 8.34369,9.96663 18.54144,21.62507c20.79994,23.77912 19.05631,22.42675 27.52656,21.35075c5.04356,-0.64069 10.94138,-0.23369 15.807,1.09075c4.98369,1.35656 12.052,5.47475 15.83031,9.22318c7.75988,7.69825 11.06107,15.09144 11.52025,25.80019c0.32281,7.52775 -0.57856,11.97338 -3.86481,19.0625c-2.48938,5.37006 -4.38769,7.65894 -9.66581,11.65463c-8.14425,6.16531 -16.009,8.82787 -26.00744,8.80462c-5.36625,-0.0125 -6.9665,-0.27825 -11.31725,-1.8795c-11.54719,-4.24987 -19.86694,-12.35262 -23.88069,-23.25781c-1.41744,-3.851 -1.47656,-4.5695 -1.09006,-13.24119c0.32094,-7.20244 0.21975,-9.62137 -0.472,-11.27681c-1.13175,-2.70875 -43.76644,-38.94063 -44.96363,-38.21106c-0.427,0.26018 -3.167,2.27518 -6.08887,4.47775c-2.92188,2.2025 -7.98644,5.76987 -11.25456,7.9275c-6.487,4.28268 -11.28488,8.95306 -12.716,12.37818c-1.78588,4.27419 -2.42594,8.986 -1.68813,12.42644c1.38744,6.46931 33.0815,95.48556 34.96025,98.18963c3.47763,5.00531 8.91331,9.27731 19.09569,15.00743c14.04537,7.90413 21.61256,18.6235 23.47237,33.25019c2.57007,20.212 -11.96687,40.52263 -32.22993,45.03075c-3.75825,0.83613 -6.49438,1.00025 -12.09225,0.72544c-6.30719,-0.30963 -7.93375,-0.63275 -12.68488,-2.51988c-6.64219,-2.63831 -10.22056,-5.19931 -16.31119,-11.67362c-3.66137,-3.89206 -5.09925,-5.996 -6.65968,-9.74425c-4.42007,-10.61744 -4.84019,-20.41819 -1.35482,-31.60531c3.16975,-10.17413 3.90457,-18.2185 2.24825,-24.61307c-0.53068,-2.04881 -10.65706,-23.69381 -22.50306,-48.10006c-20.53831,-42.31487 -21.69044,-44.51762 -24.81639,-47.44775c-5.2146,-4.88781 -12.07906,-7.132 -18.41916,-6.02169c-1.6412,0.28744 -6.21839,1.09444 -10.17151,1.79338c-3.95313,0.69894 -11.10948,1.72144 -15.90299,2.27225c-4.79353,0.55081 -8.79828,1.08425 -8.89945,1.18544c-0.20768,0.20768 -3.86665,50.8365 -4.03337,55.80925c-0.13087,3.90356 0.89285,5.40018 6.66798,9.74837c14.88435,11.20669 18.79711,33.841 8.60445,49.77469c-4.64153,7.25587 -12.61333,13.52787 -20.81162,16.37394c-5.98101,2.07637 -15.89061,1.955 -22.8125,-0.27938c-6.11771,-1.97481 -11.7374,-5.24087 -16.61954,-9.65894c-2.87044,-2.59762 -4.31615,-4.60937 -6.5171,-9.06881c-5.98977,-12.13619 -6.15819,-23.19394 -0.5271,-34.6075c2.19237,-4.44369 3.89486,-6.32375 11.3843,-12.57181c6.08053,-5.07275 5.89763,-2.96669 3.15788,-36.36394c-1.31128,-15.98437 -2.39692,-29.23869 -2.41254,-29.45406c-0.0156,-0.21538 -2.77059,-0.731 -6.12215,-1.14588c-3.35156,-0.41487 -10.57976,-1.57168 -16.06266,-2.57068c-11.32233,-2.06294 -14.83145,-1.894 -20.74432,0.99893c-6.58918,3.22375 -7.16653,4.2115 -30.31278,51.85919c-11.74198,24.17144 -21.68748,45.42819 -22.2241,47.5c-1.30265,5.0295 -0.76568,13.1395 1.40697,21.25c3.16488,11.8145 3.54063,14.12456 3.20227,19.6875c-0.39941,6.56675 -3.28501,15.91825 -6.27764,20.34419c-4.8843,7.22362 -14.05201,14.17762 -22.72193,17.23525c-5.48818,1.93556 -17.70716,2.22706 -23.82097,0.56837l-0.00004,0z"/>
 </g>
</svg>
